<svg xmlns="http://www.w3.org/2000/svg" xmlns:xlink="http://www.w3.org/1999/xlink" width="500" zoomAndPan="magnify" viewBox="0 0 375 374.999991" height="500" preserveAspectRatio="xMidYMid meet" version="1.0"><defs><g/><clipPath id="034c48521b"><path d="M 174 124.3125 L 201 124.3125 L 201 161 L 174 161 Z M 174 124.3125 " clip-rule="nonzero"/></clipPath><clipPath id="58e5d172f5"><path d="M 151.25 147 L 188 147 L 188 175 L 151.25 175 Z M 151.25 147 " clip-rule="nonzero"/></clipPath></defs><rect x="-37.5" width="450" fill="#ffffff" y="-37.499999" height="449.999989" fill-opacity="1"/><rect x="-37.5" width="450" fill="#ffffff" y="-37.499999" height="449.999989" fill-opacity="1"/><path fill="#dfdfdf" d="M 195.390625 196.765625 L 179.582031 196.765625 C 176.53125 196.765625 174.035156 194.269531 174.035156 191.21875 L 174.035156 183.542969 L 177.730469 183.542969 L 177.730469 191.21875 C 177.730469 192.238281 178.5625 193.070312 179.582031 193.070312 L 195.390625 193.070312 C 196.410156 193.070312 197.242188 192.238281 197.242188 191.21875 L 197.242188 160.558594 L 200.941406 160.558594 L 200.941406 191.21875 C 200.941406 194.269531 198.460938 196.765625 195.390625 196.765625 Z M 195.390625 196.765625 " fill-opacity="1" fill-rule="nonzero"/><g clip-path="url(#034c48521b)"><path fill="#9dd1ea" d="M 177.730469 160.558594 L 174.035156 160.558594 L 174.035156 129.898438 C 174.035156 126.84375 176.53125 124.347656 179.582031 124.347656 L 195.390625 124.347656 C 198.445312 124.347656 200.941406 126.84375 200.941406 129.898438 L 200.941406 137.570312 L 197.242188 137.570312 L 197.242188 129.898438 C 197.242188 128.878906 196.410156 128.046875 195.390625 128.046875 L 179.582031 128.046875 C 178.5625 128.046875 177.730469 128.878906 177.730469 129.898438 Z M 177.730469 160.558594 " fill-opacity="1" fill-rule="nonzero"/></g><g clip-path="url(#58e5d172f5)"><path fill="#9dd1ea" d="M 187.496094 174.019531 L 156.835938 174.019531 C 153.785156 174.019531 151.285156 171.523438 151.285156 168.472656 L 151.285156 152.660156 C 151.285156 149.609375 153.785156 147.113281 156.835938 147.113281 L 164.507812 147.113281 L 164.507812 150.8125 L 156.835938 150.8125 C 155.816406 150.8125 154.984375 151.644531 154.984375 152.660156 L 154.984375 168.472656 C 154.984375 169.488281 155.816406 170.324219 156.835938 170.324219 L 187.496094 170.324219 Z M 187.496094 174.019531 " fill-opacity="1" fill-rule="nonzero"/></g><path fill="#dfdfdf" d="M 218.15625 174.019531 L 210.484375 174.019531 L 210.484375 170.324219 L 218.15625 170.324219 C 219.175781 170.324219 220.007812 169.488281 220.007812 168.472656 L 220.007812 152.660156 C 220.007812 151.644531 219.175781 150.8125 218.15625 150.8125 L 187.496094 150.8125 L 187.496094 147.113281 L 218.15625 147.113281 C 221.207031 147.113281 223.707031 149.609375 223.707031 152.660156 L 223.707031 168.472656 C 223.707031 171.523438 221.207031 174.019531 218.15625 174.019531 Z M 218.15625 174.019531 " fill-opacity="1" fill-rule="nonzero"/><g fill="#9dd1ea" fill-opacity="1"><g transform="translate(95.390312, 228.662738)"><g><path d="M 19.765625 0 L 16.4375 0 L 16.4375 -8.203125 L 5.9375 -8.203125 L 5.9375 0 L 2.609375 0 L 2.609375 -19.796875 L 5.9375 -19.796875 L 5.9375 -11.203125 L 16.4375 -11.203125 L 16.4375 -19.796875 L 19.765625 -19.796875 Z M 19.765625 0 "/></g></g></g><g fill="#9dd1ea" fill-opacity="1"><g transform="translate(121.990002, 228.662738)"><g><path d="M 16.75 -16.796875 L 5.9375 -16.796875 L 5.9375 -11.453125 L 15.609375 -11.453125 L 15.609375 -8.453125 L 5.9375 -8.453125 L 5.9375 -3 L 17.078125 -3 L 17.078125 0 L 2.609375 0 L 2.609375 -19.796875 L 16.75 -19.796875 Z M 16.75 -16.796875 "/></g></g></g><g fill="#9dd1ea" fill-opacity="1"><g transform="translate(144.773831, 228.662738)"><g><path d="M 15.390625 -4.46875 L 5.40625 -4.46875 L 3.5 0 L 0.03125 0 L 8.765625 -19.796875 L 12.1875 -19.796875 L 20.84375 0 L 17.28125 0 Z M 14.109375 -7.4375 L 10.375 -16.234375 L 6.640625 -7.4375 Z M 14.109375 -7.4375 "/></g></g></g><g fill="#9dd1ea" fill-opacity="1"><g transform="translate(169.875443, 228.662738)"><g><path d="M 5.9375 -3.03125 L 14.515625 -3.03125 L 14.515625 0 L 2.609375 0 L 2.609375 -19.796875 L 5.9375 -19.796875 Z M 5.9375 -3.03125 "/></g></g></g><g fill="#9dd1ea" fill-opacity="1"><g transform="translate(189.21087, 228.662738)"><g><path d="M 9.109375 -19.9375 C 11.671875 -19.9375 13.976562 -19.257812 16.03125 -17.90625 L 14.65625 -14.953125 C 12.632812 -16.179688 10.703125 -16.796875 8.859375 -16.796875 C 7.859375 -16.796875 7.066406 -16.613281 6.484375 -16.25 C 5.910156 -15.894531 5.625 -15.390625 5.625 -14.734375 C 5.625 -14.078125 5.890625 -13.515625 6.421875 -13.046875 C 6.953125 -12.585938 7.613281 -12.25 8.40625 -12.03125 C 9.195312 -11.8125 10.050781 -11.535156 10.96875 -11.203125 C 11.894531 -10.878906 12.753906 -10.53125 13.546875 -10.15625 C 14.335938 -9.789062 14.992188 -9.21875 15.515625 -8.4375 C 16.035156 -7.65625 16.296875 -6.707031 16.296875 -5.59375 C 16.296875 -3.863281 15.597656 -2.476562 14.203125 -1.4375 C 12.816406 -0.40625 11.023438 0.109375 8.828125 0.109375 C 7.316406 0.109375 5.851562 -0.171875 4.4375 -0.734375 C 3.019531 -1.296875 1.785156 -2.0625 0.734375 -3.03125 L 2.171875 -5.90625 C 3.171875 -4.988281 4.269531 -4.28125 5.46875 -3.78125 C 6.664062 -3.28125 7.800781 -3.03125 8.875 -3.03125 C 10.050781 -3.03125 10.960938 -3.238281 11.609375 -3.65625 C 12.253906 -4.082031 12.578125 -4.675781 12.578125 -5.4375 C 12.578125 -6.113281 12.3125 -6.679688 11.78125 -7.140625 C 11.257812 -7.597656 10.601562 -7.9375 9.8125 -8.15625 C 9.019531 -8.375 8.160156 -8.640625 7.234375 -8.953125 C 6.316406 -9.265625 5.460938 -9.59375 4.671875 -9.9375 C 3.878906 -10.289062 3.21875 -10.851562 2.6875 -11.625 C 2.15625 -12.394531 1.890625 -13.328125 1.890625 -14.421875 C 1.890625 -16.097656 2.550781 -17.4375 3.875 -18.4375 C 5.195312 -19.4375 6.941406 -19.9375 9.109375 -19.9375 Z M 9.109375 -19.9375 "/></g></g></g><g fill="#9dd1ea" fill-opacity="1"><g transform="translate(211.033676, 228.662738)"><g><path d="M 10.71875 -6.59375 L 10.71875 0 L 7.40625 0 L 7.40625 -6.46875 L 0.03125 -19.796875 L 3.390625 -19.796875 L 9.046875 -10.15625 L 14.59375 -19.796875 L 17.984375 -19.796875 Z M 10.71875 -6.59375 "/></g></g></g><g fill="#9dd1ea" fill-opacity="1"><g transform="translate(233.280462, 228.662738)"><g><path d="M 19.765625 0 L 16.484375 0 L 5.9375 -14.203125 L 5.9375 0 L 2.609375 0 L 2.609375 -19.796875 L 5.875 -19.796875 L 16.484375 -5.578125 L 16.484375 -19.796875 L 19.765625 -19.796875 Z M 19.765625 0 "/></g></g></g><g fill="#9dd1ea" fill-opacity="1"><g transform="translate(259.908413, 228.662738)"><g><path d="M 11.375 -19.875 C 12.769531 -19.875 14.128906 -19.601562 15.453125 -19.0625 C 16.785156 -18.53125 17.929688 -17.785156 18.890625 -16.828125 L 16.9375 -14.390625 C 16.21875 -15.160156 15.367188 -15.769531 14.390625 -16.21875 C 13.410156 -16.675781 12.421875 -16.90625 11.421875 -16.90625 C 9.441406 -16.90625 7.769531 -16.234375 6.40625 -14.890625 C 5.039062 -13.546875 4.359375 -11.898438 4.359375 -9.953125 C 4.359375 -7.992188 5.039062 -6.335938 6.40625 -4.984375 C 7.769531 -3.640625 9.441406 -2.96875 11.421875 -2.96875 C 13.484375 -2.96875 15.320312 -3.75 16.9375 -5.3125 L 18.921875 -3.109375 C 17.898438 -2.109375 16.710938 -1.316406 15.359375 -0.734375 C 14.003906 -0.148438 12.632812 0.140625 11.25 0.140625 C 8.351562 0.140625 5.914062 -0.820312 3.9375 -2.75 C 1.957031 -4.6875 0.96875 -7.078125 0.96875 -9.921875 C 0.96875 -12.734375 1.96875 -15.09375 3.96875 -17 C 5.976562 -18.914062 8.445312 -19.875 11.375 -19.875 Z M 11.375 -19.875 "/></g></g></g><g fill="#a6a6a6" fill-opacity="1"><g transform="translate(164.623273, 248.687928)"><g><path d="M 4.015625 -7.03125 C 4.515625 -7.03125 5 -6.929688 5.46875 -6.734375 C 5.9375 -6.546875 6.34375 -6.285156 6.6875 -5.953125 L 5.984375 -5.09375 C 5.734375 -5.363281 5.429688 -5.578125 5.078125 -5.734375 C 4.734375 -5.898438 4.390625 -5.984375 4.046875 -5.984375 C 3.335938 -5.984375 2.742188 -5.742188 2.265625 -5.265625 C 1.785156 -4.785156 1.546875 -4.203125 1.546875 -3.515625 C 1.546875 -2.828125 1.785156 -2.242188 2.265625 -1.765625 C 2.742188 -1.285156 3.335938 -1.046875 4.046875 -1.046875 C 4.765625 -1.046875 5.410156 -1.320312 5.984375 -1.875 L 6.6875 -1.09375 C 6.332031 -0.738281 5.910156 -0.457031 5.421875 -0.25 C 4.941406 -0.0507812 4.460938 0.046875 3.984375 0.046875 C 2.953125 0.046875 2.085938 -0.289062 1.390625 -0.96875 C 0.691406 -1.65625 0.34375 -2.503906 0.34375 -3.515625 C 0.34375 -4.503906 0.695312 -5.335938 1.40625 -6.015625 C 2.113281 -6.691406 2.984375 -7.03125 4.015625 -7.03125 Z M 4.015625 -7.03125 "/></g></g></g><g fill="#a6a6a6" fill-opacity="1"><g transform="translate(174.090521, 248.687928)"><g><path d="M 2.09375 -1.0625 L 5.125 -1.0625 L 5.125 0 L 0.921875 0 L 0.921875 -7 L 2.09375 -7 Z M 2.09375 -1.0625 "/></g></g></g><g fill="#a6a6a6" fill-opacity="1"><g transform="translate(181.928404, 248.687928)"><g><path d="M 2.09375 0 L 0.921875 0 L 0.921875 -7 L 2.09375 -7 Z M 2.09375 0 "/></g></g></g><g fill="#a6a6a6" fill-opacity="1"><g transform="translate(187.447211, 248.687928)"><g><path d="M 6.984375 0 L 5.828125 0 L 2.09375 -5.015625 L 2.09375 0 L 0.921875 0 L 0.921875 -7 L 2.078125 -7 L 5.828125 -1.96875 L 5.828125 -7 L 6.984375 -7 Z M 6.984375 0 "/></g></g></g><g fill="#a6a6a6" fill-opacity="1"><g transform="translate(197.864078, 248.687928)"><g><path d="M 2.09375 0 L 0.921875 0 L 0.921875 -7 L 2.09375 -7 Z M 2.09375 0 "/></g></g></g><g fill="#a6a6a6" fill-opacity="1"><g transform="translate(203.382885, 248.687928)"><g><path d="M 4.015625 -7.03125 C 4.515625 -7.03125 5 -6.929688 5.46875 -6.734375 C 5.9375 -6.546875 6.34375 -6.285156 6.6875 -5.953125 L 5.984375 -5.09375 C 5.734375 -5.363281 5.429688 -5.578125 5.078125 -5.734375 C 4.734375 -5.898438 4.390625 -5.984375 4.046875 -5.984375 C 3.335938 -5.984375 2.742188 -5.742188 2.265625 -5.265625 C 1.785156 -4.785156 1.546875 -4.203125 1.546875 -3.515625 C 1.546875 -2.828125 1.785156 -2.242188 2.265625 -1.765625 C 2.742188 -1.285156 3.335938 -1.046875 4.046875 -1.046875 C 4.765625 -1.046875 5.410156 -1.320312 5.984375 -1.875 L 6.6875 -1.09375 C 6.332031 -0.738281 5.910156 -0.457031 5.421875 -0.25 C 4.941406 -0.0507812 4.460938 0.046875 3.984375 0.046875 C 2.953125 0.046875 2.085938 -0.289062 1.390625 -0.96875 C 0.691406 -1.65625 0.34375 -2.503906 0.34375 -3.515625 C 0.34375 -4.503906 0.695312 -5.335938 1.40625 -6.015625 C 2.113281 -6.691406 2.984375 -7.03125 4.015625 -7.03125 Z M 4.015625 -7.03125 "/></g></g></g></svg>